<svg width="218" height="47" viewBox="0 0 218 47" fill="none" xmlns="http://www.w3.org/2000/svg">
<path d="M50.0918 35.4395C48.2168 35.4395 46.3711 35.0879 44.5547 34.3848C42.7383 33.6699 41.2207 32.7207 40.002 31.5371L42.2344 28.2676C43.2305 29.2637 44.4258 30.0664 45.8203 30.6758C47.2266 31.2734 48.6504 31.5723 50.0918 31.5723C51.5332 31.5723 52.7461 31.2617 53.7305 30.6406C54.7148 30.0195 55.207 29.2168 55.207 28.2324C55.207 27.8457 55.125 27.4883 54.9609 27.1602C54.7969 26.8203 54.5508 26.5273 54.2227 26.2812C53.8945 26.0352 53.5664 25.8242 53.2383 25.6484C52.9102 25.4609 52.4824 25.291 51.9551 25.1387C51.4395 24.9746 51.0117 24.8516 50.6719 24.7695C50.3438 24.6758 49.9102 24.5703 49.3711 24.4531C48.1758 24.1719 47.0918 23.832 46.1191 23.4336C45.1465 23.0234 44.25 22.5195 43.4297 21.9219C42.6094 21.3242 41.9707 20.5977 41.5137 19.7422C41.0566 18.875 40.8281 17.9141 40.8281 16.8594C40.8281 14.7266 41.6836 13.0039 43.3945 11.6914C45.1055 10.3789 47.3262 9.72266 50.0566 9.72266C51.8027 9.72266 53.4082 10.0039 54.873 10.5664C56.3379 11.1289 57.5391 11.8789 58.4766 12.8164L56.4551 16.0684C55.752 15.3418 54.8086 14.7441 53.625 14.2754C52.4531 13.8066 51.2402 13.5723 49.9863 13.5723C48.6035 13.5723 47.4668 13.8652 46.5762 14.4512C45.6973 15.0371 45.2578 15.793 45.2578 16.7188C45.2578 18.418 47.0332 19.625 50.584 20.3398C51.0293 20.4336 51.4453 20.5332 51.832 20.6387C52.2188 20.7441 52.7344 20.9082 53.3789 21.1309C54.0234 21.3535 54.6035 21.5938 55.1191 21.8516C55.6348 22.1094 56.1797 22.4492 56.7539 22.8711C57.3398 23.2812 57.8262 23.7266 58.2129 24.207C58.6113 24.6758 58.9395 25.2441 59.1973 25.9121C59.4551 26.5801 59.584 27.2949 59.584 28.0566C59.584 30.2246 58.6816 32 56.877 33.3828C55.0723 34.7539 52.8105 35.4395 50.0918 35.4395ZM73.0488 16.209C75.2285 16.209 76.9805 16.8711 78.3047 18.1953C79.6406 19.5195 80.3086 21.2715 80.3086 23.4512V35H76.2832V24.7695C76.2832 23.3633 75.8672 22.2324 75.0352 21.377C74.2031 20.5215 73.0957 20.0938 71.7129 20.0938C70.2598 20.0938 69.0879 20.5273 68.1973 21.3945C67.3066 22.2617 66.8613 23.4102 66.8613 24.8398V35H62.8184V9.07227H66.8613V19.127C68.3613 17.1816 70.4238 16.209 73.0488 16.209ZM93.5098 35.4395C90.709 35.4395 88.3711 34.5195 86.4961 32.6797C84.6211 30.8398 83.6836 28.5547 83.6836 25.8242C83.6836 23.0938 84.6211 20.8086 86.4961 18.9688C88.3711 17.1289 90.709 16.209 93.5098 16.209C95.3379 16.209 97.002 16.6309 98.502 17.4746C100.014 18.3066 101.197 19.4609 102.053 20.9375C102.908 22.4023 103.336 24.0312 103.336 25.8242C103.336 27.6172 102.908 29.252 102.053 30.7285C101.197 32.1934 100.014 33.3477 98.502 34.1914C97.002 35.0234 95.3379 35.4395 93.5098 35.4395ZM89.4492 29.9023C90.5391 30.9922 91.8926 31.5371 93.5098 31.5371C95.127 31.5371 96.4688 30.9922 97.5352 29.9023C98.6133 28.8008 99.1523 27.4414 99.1523 25.8242C99.1523 24.1953 98.6133 22.8359 97.5352 21.7461C96.4688 20.6445 95.127 20.0938 93.5098 20.0938C91.8926 20.0938 90.5391 20.6445 89.4492 21.7461C88.3594 22.8477 87.8145 24.207 87.8145 25.8242C87.8145 27.4414 88.3594 28.8008 89.4492 29.9023ZM117.486 16.209C119.174 16.209 120.709 16.6309 122.092 17.4746C123.475 18.3066 124.559 19.4609 125.344 20.9375C126.129 22.4023 126.521 24.0312 126.521 25.8242C126.521 27.6172 126.129 29.252 125.344 30.7285C124.559 32.1934 123.475 33.3477 122.092 34.1914C120.709 35.0234 119.174 35.4395 117.486 35.4395C116.15 35.4395 114.932 35.1699 113.83 34.6309C112.729 34.0918 111.791 33.3242 111.018 32.3281V41.8379H106.975V16.6484H111.018V19.3027C111.779 18.3184 112.711 17.5566 113.812 17.0176C114.926 16.4785 116.15 16.209 117.486 16.209ZM112.635 29.9023C113.725 30.9922 115.078 31.5371 116.695 31.5371C118.312 31.5371 119.66 30.9922 120.738 29.9023C121.816 28.8008 122.355 27.4414 122.355 25.8242C122.355 24.207 121.816 22.8477 120.738 21.7461C119.66 20.6445 118.312 20.0938 116.695 20.0938C115.078 20.0938 113.725 20.6445 112.635 21.7461C111.557 22.8477 111.018 24.207 111.018 25.8242C111.018 27.4414 111.557 28.8008 112.635 29.9023ZM130.248 35V9.07227H134.291V35H130.248ZM152.326 16.6484H156.826L147.422 38.498C146.93 39.6816 146.209 40.6074 145.26 41.2754C144.322 41.9434 143.291 42.2773 142.166 42.2773C141.393 42.2773 140.584 42.1074 139.74 41.7676C138.908 41.4395 138.193 41.0059 137.596 40.4668L139.213 37.3379C139.881 38.041 140.648 38.3926 141.516 38.3926C142.488 38.3926 143.221 37.8711 143.713 36.8281L144.697 34.7891L137.016 16.6484H141.639L146.965 30.0254L152.326 16.6484ZM165.264 35.4395C162.311 35.4395 159.768 34.502 157.635 32.627L159.727 29.7793C161.238 31.2207 163.061 31.9414 165.193 31.9414C166.26 31.9414 167.133 31.7656 167.812 31.4141C168.492 31.0508 168.832 30.5527 168.832 29.9199C168.832 29.6387 168.756 29.3867 168.604 29.1641C168.463 28.9414 168.287 28.7539 168.076 28.6016C167.877 28.4492 167.578 28.3027 167.18 28.1621C166.781 28.0215 166.43 27.9102 166.125 27.8281C165.832 27.7461 165.416 27.6406 164.877 27.5117C164.338 27.3828 163.898 27.2773 163.559 27.1953C163.219 27.1016 162.791 26.9668 162.275 26.791C161.76 26.6152 161.332 26.4395 160.992 26.2637C160.664 26.0879 160.307 25.8535 159.92 25.5605C159.533 25.2676 159.229 24.9512 159.006 24.6113C158.783 24.2715 158.596 23.8672 158.443 23.3984C158.291 22.9297 158.215 22.4141 158.215 21.8516C158.215 20.6328 158.555 19.5898 159.234 18.7227C159.914 17.8555 160.793 17.2227 161.871 16.8242C162.949 16.4141 164.168 16.209 165.527 16.209C168.211 16.209 170.537 17.0234 172.506 18.6523L170.379 21.5C168.973 20.3047 167.379 19.707 165.598 19.707C164.648 19.707 163.863 19.8652 163.242 20.1816C162.633 20.498 162.328 20.9609 162.328 21.5703C162.328 21.8047 162.369 22.0156 162.451 22.2031C162.533 22.3906 162.674 22.5605 162.873 22.7129C163.084 22.8652 163.283 22.9941 163.471 23.0996C163.658 23.2051 163.934 23.3164 164.297 23.4336C164.672 23.5391 164.982 23.627 165.229 23.6973C165.486 23.7559 165.85 23.8379 166.318 23.9434C166.846 24.0605 167.279 24.166 167.619 24.2598C167.971 24.3418 168.398 24.4707 168.902 24.6465C169.418 24.8105 169.846 24.9863 170.186 25.1738C170.525 25.3496 170.883 25.584 171.258 25.877C171.633 26.1582 171.932 26.4688 172.154 26.8086C172.389 27.1367 172.576 27.5352 172.717 28.0039C172.869 28.4727 172.945 28.9824 172.945 29.5332C172.945 30.7637 172.6 31.8359 171.908 32.75C171.217 33.6523 170.297 34.3262 169.148 34.7715C168.012 35.2168 166.717 35.4395 165.264 35.4395ZM186.973 20.3047H181.787V28.9883C181.787 29.832 182.016 30.4707 182.473 30.9043C182.941 31.3262 183.604 31.5371 184.459 31.5371C185.268 31.5371 186.105 31.3262 186.973 30.9043V34.6836C185.977 35.1875 184.857 35.4395 183.615 35.4395C181.682 35.4395 180.223 34.9297 179.238 33.9102C178.254 32.8906 177.762 31.4668 177.762 29.6387V20.3047H174.65V16.6484H177.762V11.8848H181.787V16.6484H186.973V20.3047ZM192.633 13.5371C191.906 13.5371 191.297 13.291 190.805 12.7988C190.312 12.3066 190.066 11.7031 190.066 10.9883C190.066 10.25 190.312 9.64062 190.805 9.16016C191.297 8.67969 191.906 8.43945 192.633 8.43945C193.371 8.43945 193.986 8.67969 194.479 9.16016C194.971 9.64062 195.217 10.25 195.217 10.9883C195.217 11.7148 194.971 12.3242 194.479 12.8164C193.986 13.2969 193.371 13.5371 192.633 13.5371ZM190.611 35V16.6484H194.654V35H190.611ZM208.154 35.4395C205.354 35.4395 203.016 34.5195 201.141 32.6797C199.266 30.8398 198.328 28.5547 198.328 25.8242C198.328 23.0938 199.266 20.8086 201.141 18.9688C203.016 17.1289 205.354 16.209 208.154 16.209C209.971 16.209 211.617 16.6191 213.094 17.4395C214.57 18.2598 215.73 19.373 216.574 20.7793L213.076 22.9062C212.584 22.0391 211.904 21.3535 211.037 20.8496C210.17 20.3457 209.209 20.0938 208.154 20.0938C206.537 20.0938 205.184 20.6445 204.094 21.7461C203.004 22.8477 202.459 24.207 202.459 25.8242C202.459 27.4414 203.004 28.8008 204.094 29.9023C205.184 30.9922 206.537 31.5371 208.154 31.5371C209.221 31.5371 210.182 31.2852 211.037 30.7812C211.904 30.2773 212.584 29.5977 213.076 28.7422L216.574 30.8516C215.73 32.2578 214.564 33.377 213.076 34.209C211.6 35.0293 209.959 35.4395 208.154 35.4395Z" fill="black"/>
<path d="M22.5884 39.0001C24.0439 39.0001 25.2237 37.8202 25.2237 36.3648C25.2237 34.9094 24.0439 33.7295 22.5884 33.7295C21.133 33.7295 19.9531 34.9094 19.9531 36.3648C19.9531 37.8202 21.133 39.0001 22.5884 39.0001Z" fill="#ED5931"/>
<path d="M10.5415 39.0001C11.997 39.0001 13.1768 37.8202 13.1768 36.3648C13.1768 34.9094 11.997 33.7295 10.5415 33.7295C9.08611 33.7295 7.90625 34.9094 7.90625 36.3648C7.90625 37.8202 9.08611 39.0001 10.5415 39.0001Z" fill="#ED5931"/>
<path d="M5.40612 11.0508L5.10494 14.7402C5.04471 15.448 5.60188 16.0353 6.30965 16.0353H29.3647C29.9972 16.0353 30.5242 15.5534 30.5694 14.9209C30.7652 12.2555 28.7322 10.0871 26.0668 10.0871H7.55953C7.40894 9.42447 7.10776 8.792 6.64094 8.26494C5.888 7.46682 4.83388 7 3.74965 7H1.12941C0.512 7 0 7.512 0 8.12941C0 8.74682 0.512 9.25882 1.12941 9.25882H3.74965C4.21647 9.25882 4.65318 9.45459 4.96941 9.78588C5.28565 10.1322 5.43624 10.584 5.40612 11.0508Z" fill="#ED5931"/>
<path d="M29.0028 18.2949H5.90259C5.27012 18.2949 4.75812 18.7768 4.69788 19.3942L4.15576 25.9448C3.94494 28.5199 5.96282 30.7185 8.53788 30.7185H25.2833C27.5421 30.7185 29.5299 28.8662 29.6955 26.6074L30.1925 19.5749C30.2527 18.8822 29.7106 18.2949 29.0028 18.2949Z" fill="#ED5931"/>
</svg>
